<?xml version="1.0" standalone="no"?>
<!DOCTYPE svg PUBLIC "-//W3C//DTD SVG 20010904//EN"
 "http://www.w3.org/TR/2001/REC-SVG-20010904/DTD/svg10.dtd">
<svg version="1.0" xmlns="http://www.w3.org/2000/svg"
 width="128.000000pt" height="128.000000pt" viewBox="0 0 128.000000 128.000000"
 preserveAspectRatio="xMidYMid meet">
<metadata>
Created by potrace 1.11, written by Peter Selinger 2001-2013
</metadata>
<g transform="translate(0.000000,128.000000) scale(0.100000,-0.100000)"
fill="#000000" stroke="none">
<path d="M0 640 l0 -640 338 0 339 0 0 33 c1 17 5 52 10 77 l8 45 57 6 c32 4
69 14 83 23 13 9 38 15 55 14 29 -2 30 -4 25 -43 -3 -22 -12 -62 -20 -89 -8
-27 -15 -53 -15 -58 0 -4 90 -8 200 -8 l200 0 0 640 0 640 -640 0 -640 0 0
-640z m916 402 c-7 -6 -93 34 -100 47 -4 6 17 -1 48 -16 30 -15 54 -29 52 -31z
m-84 -13 c22 -5 68 -24 103 -41 68 -32 95 -68 95 -124 0 -26 -1 -26 -18 -11
-23 21 -56 21 -115 1 -50 -17 -82 -44 -52 -44 14 0 13 -3 -6 -18 -31 -26 -20
-44 34 -60 46 -14 87 -9 87 9 0 6 8 6 20 -1 11 -6 20 -7 20 -2 0 17 -27 33
-64 39 -37 6 -50 22 -18 24 14 0 14 2 -3 9 -33 13 52 25 87 12 21 -7 28 -7 29
1 3 26 17 -92 18 -149 1 -62 -25 -184 -53 -245 -26 -58 -133 -203 -167 -226
-32 -23 -101 -31 -126 -15 -7 4 -12 32 -12 65 0 57 0 57 31 57 25 0 28 3 19
14 -9 11 -6 15 16 22 16 4 30 8 33 9 40 12 124 77 114 88 -2 2 -25 0 -52 -4
-26 -4 -78 -8 -117 -8 -60 1 -66 2 -40 11 17 5 49 9 73 8 23 0 42 4 42 9 0 6
-8 10 -17 9 -35 -3 -54 2 -48 12 4 6 15 8 26 5 10 -4 19 -2 19 3 0 5 -9 12
-19 15 -18 4 -19 9 -9 43 7 27 7 64 -1 126 -13 104 -19 121 -37 114 -8 -3 -14
-1 -14 5 0 18 -26 37 -69 50 -33 10 -40 15 -30 23 17 13 20 24 30 99 11 92 71
136 128 95 13 -10 41 -23 63 -29z m-229 -236 c-7 -2 -21 -2 -30 0 -10 3 -4 5
12 5 17 0 24 -2 18 -5z m307 -48 c0 -13 -4 -14 -22 -4 -34 17 -34 19 -5 19 18
0 27 -5 27 -15z m-260 -163 c0 -10 5 -23 11 -29 8 -8 7 -20 -5 -43 -13 -27
-13 -30 -1 -20 12 10 15 9 15 -4 0 -13 3 -13 20 4 13 13 26 18 33 13 8 -5 5
-9 -10 -11 -13 -2 -23 -10 -23 -18 0 -8 -14 -17 -32 -21 -23 -4 -27 -8 -15
-12 13 -5 12 -8 -8 -18 -17 -7 -23 -8 -18 0 4 6 0 8 -10 4 -11 -4 -14 -2 -10
9 3 7 9 14 13 14 4 0 11 7 14 16 6 15 4 15 -11 3 -29 -23 -33 -32 -27 -65 6
-33 -10 -54 -27 -37 -13 13 -19 147 -8 186 11 37 24 47 67 47 24 0 32 -4 32
-18z m220 -157 c0 -13 -68 -45 -95 -45 -68 0 -104 26 -40 28 21 1 35 -3 35
-10 0 -7 6 -4 13 4 6 9 26 19 42 21 17 2 33 5 38 6 4 0 7 -1 7 -4z m57 -307
c-3 -8 -6 -5 -6 6 -1 11 2 17 5 13 3 -3 4 -12 1 -19z"/>
<path d="M850 552 c0 -6 -12 -23 -27 -38 l-28 -26 27 17 c26 16 43 43 33 53
-3 3 -5 0 -5 -6z"/>
</g>
</svg>
